<svg width="20" height="23" viewBox="0 0 20 23" fill="none" xmlns="http://www.w3.org/2000/svg">
<g clip-path="url(#clip0_424_12)">
<path fill-rule="evenodd" clip-rule="evenodd" d="M0.25 3.93365C0.25 2.9831 0.635211 2.07149 1.32089 1.39935C2.00657 0.727212 2.93655 0.349609 3.90625 0.349609H16.0938C17.0634 0.349609 17.9934 0.727212 18.6791 1.39935C19.3648 2.07149 19.75 2.9831 19.75 3.93365V21.1848C19.7499 21.461 19.6766 21.7324 19.5372 21.9724C19.3978 22.2123 19.1971 22.4127 18.9549 22.5537C18.7127 22.6948 18.4373 22.7717 18.1556 22.7769C17.8739 22.7821 17.5957 22.7154 17.3483 22.5834L10.195 18.77C10.1356 18.7385 10.0692 18.722 10.0016 18.722C9.9341 18.722 9.86764 18.7385 9.80825 18.77L2.65338 22.5834C2.40587 22.7158 2.12748 22.7828 1.84557 22.7778C1.56367 22.7727 1.28794 22.6959 1.04548 22.5548C0.803032 22.4138 0.602202 22.2133 0.462731 21.973C0.32326 21.7328 0.249948 21.4612 0.25 21.1848V3.93365ZM3.90625 2.73897C3.58302 2.73897 3.27302 2.86484 3.04446 3.08888C2.8159 3.31293 2.6875 3.6168 2.6875 3.93365V19.8452L8.6415 16.6721C9.05841 16.4499 9.52543 16.3335 10 16.3335C10.4746 16.3335 10.9416 16.4499 11.3585 16.6721L17.3125 19.8452V3.93365C17.3125 3.6168 17.1841 3.31293 16.9555 3.08888C16.727 2.86484 16.417 2.73897 16.0938 2.73897H3.90625Z" fill="#5F5F5F"/>
</g>
<defs>
<clipPath id="clip0_424_12">
<rect width="20" height="23" fill="white"/>
</clipPath>
</defs>
</svg>
