<svg width="23" height="23" viewBox="0 0 23 23" fill="none" xmlns="http://www.w3.org/2000/svg">
<g clip-path="url(#clip0_424_14)">
<path d="M1.24765 22.7605C1.08565 22.7633 0.925391 22.7274 0.780547 22.6561C0.635716 22.5849 0.510609 22.4802 0.415942 22.3511C0.321275 22.2222 0.259845 22.0725 0.236911 21.9151C0.213977 21.7577 0.23022 21.5971 0.284251 21.4472L2.42513 14.5525C1.95917 13.3671 1.72319 12.1066 1.72935 10.836C1.72722 9.43827 2.00925 8.05421 2.55894 6.76483C3.09814 5.53099 3.8699 4.40816 4.83362 3.45539C5.80214 2.50073 6.95236 1.74217 8.21889 1.22282C9.52872 0.677041 10.9372 0.395752 12.3602 0.395752C13.7832 0.395752 15.1916 0.677041 16.5014 1.22282C18.4203 2.02957 20.057 3.36941 21.2102 5.07742C22.3632 6.78544 22.9821 8.78709 22.991 10.836C22.9825 13.6032 21.8623 16.2553 19.8733 18.2166C18.9026 19.1624 17.7585 19.9199 16.5014 20.4491C13.9713 21.4891 11.1312 21.5361 8.56678 20.5805L1.54202 22.6817C1.44806 22.7211 1.349 22.7476 1.24765 22.7605ZM12.3535 2.40477C10.6587 2.41197 9.00327 2.9057 7.59093 3.82512C6.17863 4.74456 5.07131 6.04948 4.40545 7.57906C3.52078 9.68175 3.52078 12.0428 4.40545 14.1454C4.48517 14.3619 4.48517 14.5988 4.40545 14.8152L2.75964 20.2915L8.31255 18.6368C8.53304 18.5585 8.77446 18.5585 8.99497 18.6368C10.0552 19.0689 11.192 19.2912 12.3401 19.2912C13.4881 19.2912 14.625 19.0689 15.6852 18.6368C16.73 18.2051 17.6776 17.5754 18.474 16.7837C19.2703 15.9919 19.8997 15.0537 20.326 14.0229C20.7524 12.9921 20.9673 11.8888 20.9585 10.7762C20.9496 9.66376 20.7174 8.5639 20.2747 7.53966C19.6103 6.01751 18.5058 4.71988 17.0981 3.80725C15.6902 2.89463 14.0406 2.40703 12.3535 2.40477Z" fill="#5F5F5F"/>
</g>
<defs>
<clipPath id="clip0_424_14">
<rect width="23" height="23" fill="white"/>
</clipPath>
</defs>
</svg>
