<svg width="26" height="23" viewBox="0 0 26 23" fill="none" xmlns="http://www.w3.org/2000/svg">
<g clip-path="url(#clip0_424_16)">
<path fill-rule="evenodd" clip-rule="evenodd" d="M15.7446 0.610634C17.0989 0.0534198 18.5858 -0.0918592 20.0212 0.192774C21.4567 0.477406 22.7777 1.17946 23.8209 2.21206C24.5123 2.89461 25.0615 3.7091 25.4365 4.60789C25.8114 5.50668 26.0045 6.47172 26.0045 7.44654C26.0045 8.42136 25.8114 9.3864 25.4365 10.2852C25.0615 11.184 24.5123 11.9985 23.8209 12.681L13.8564 22.5955C13.6283 22.8222 13.3206 22.9494 13 22.9494C12.6794 22.9494 12.3717 22.8222 12.1436 22.5955L2.1775 12.6827C1.48852 11.9986 0.941281 11.1837 0.567497 10.2851C0.193712 9.3866 0.00081973 8.42231 0 7.44818C0.000604695 6.47376 0.193393 5.50917 0.567184 4.61033C0.940975 3.7115 1.48833 2.89631 2.1775 2.21206C3.57427 0.825099 5.45777 0.0481319 7.41975 0.0495625C9.38275 0.0495625 11.2694 0.826556 12.662 2.21206L13 2.54739L13.338 2.21206C14.028 1.5252 14.8451 0.981137 15.743 0.610634H15.7446ZM22.1081 3.9558C21.1655 3.02724 19.8991 2.50725 18.5803 2.50725C17.2614 2.50725 15.995 3.02724 15.0524 3.9558L13.8564 5.145C13.6283 5.37177 13.3206 5.49892 13 5.49892C12.6794 5.49892 12.3717 5.37177 12.1436 5.145L10.9476 3.95743C10.0078 3.02496 8.74099 2.50253 7.42138 2.50323C6.09375 2.50323 4.82463 3.02667 3.89188 3.95743C3.43213 4.41318 3.06684 4.95627 2.81719 5.55521C2.56753 6.15415 2.43847 6.79702 2.4375 7.44654C2.43826 8.09634 2.56721 8.73952 2.81687 9.33876C3.06654 9.93799 3.43194 10.4813 3.89188 10.9373L13 19.9995L22.1081 10.9373C22.5696 10.4776 22.9369 9.93292 23.1855 9.33423C23.5627 8.43241 23.6617 7.43721 23.4696 6.47801C23.2774 5.51881 22.8031 4.63998 22.1081 3.9558Z" fill="#5F5F5F"/>
</g>
<defs>
<clipPath id="clip0_424_16">
<rect width="26" height="23" fill="white"/>
</clipPath>
</defs>
</svg>
