<svg width="25" height="25" viewBox="0 0 25 25" fill="none" xmlns="http://www.w3.org/2000/svg">
<g clip-path="url(#clip0_362_235)">
<path d="M11.3403 3.50686C12.8445 3.50549 14.3154 3.9503 15.5668 4.78502C16.8182 5.61974 17.794 6.80687 18.3706 8.19623C18.9472 9.58558 19.0987 11.1147 18.8061 12.5903C18.5135 14.0658 17.7898 15.4214 16.7266 16.4855C15.6635 17.5497 14.3085 18.2746 12.8333 18.5686C11.358 18.8625 9.82873 18.7124 8.43884 18.137C7.04896 17.5617 5.86094 16.587 5.02508 15.3364C4.18921 14.0857 3.74306 12.6153 3.74306 11.111C3.75218 9.09829 4.55531 7.17048 5.97789 5.7466C7.40048 4.32271 9.32755 3.51782 11.3403 3.50686V3.50686ZM11.3403 2.08325C9.55476 2.08325 7.80933 2.61272 6.32472 3.60471C4.84011 4.59669 3.68299 6.00664 2.9997 7.65625C2.31641 9.30586 2.13763 11.121 2.48597 12.8723C2.83431 14.6235 3.69412 16.2321 4.95668 17.4946C6.21924 18.7572 7.82783 19.617 9.57905 19.9653C11.3303 20.3137 13.1455 20.1349 14.7951 19.4516C16.4447 18.7683 17.8546 17.6112 18.8466 16.1266C19.8386 14.642 20.3681 12.8966 20.3681 11.111C20.3681 8.71671 19.4169 6.42046 17.7239 4.72743C16.0308 3.03439 13.7346 2.08325 11.3403 2.08325Z" fill="white"/>
<path d="M24.3056 23.1181L19.1875 17.9653L18.2014 18.9445L23.3195 24.0973C23.3838 24.162 23.4602 24.2135 23.5444 24.2487C23.6285 24.2839 23.7188 24.3022 23.8101 24.3025C23.9013 24.3028 23.9917 24.2852 24.0762 24.2506C24.1606 24.216 24.2374 24.165 24.3021 24.1007C24.3669 24.0365 24.4183 23.96 24.4535 23.8759C24.4887 23.7917 24.507 23.7014 24.5074 23.6101C24.5077 23.5189 24.49 23.4285 24.4554 23.3441C24.4208 23.2596 24.3699 23.1829 24.3056 23.1181Z" fill="white"/>
</g>
<defs>
<clipPath id="clip0_362_235">
<rect width="25" height="25" fill="white"/>
</clipPath>
</defs>
</svg>
