<svg width="24" height="17" viewBox="0 0 24 17" fill="none" xmlns="http://www.w3.org/2000/svg">
<path opacity="0.8" d="M21.7687 0H1.45125C1.06635 0 0.697223 0.146329 0.425061 0.406796C0.152899 0.667263 0 1.02053 0 1.38889V15.2778C0 15.6461 0.152899 15.9994 0.425061 16.2599C0.697223 16.5203 1.06635 16.6667 1.45125 16.6667H21.7687C22.1536 16.6667 22.5228 16.5203 22.7949 16.2599C23.0671 15.9994 23.22 15.6461 23.22 15.2778V1.38889C23.22 1.02053 23.0671 0.667263 22.7949 0.406796C22.5228 0.146329 22.1536 0 21.7687 0V0ZM20.6513 15.2778H2.65579L7.73516 10.25L6.69026 9.28472L1.45125 14.4722V2.44444L10.4708 11.0347C10.7427 11.2934 11.1105 11.4386 11.4939 11.4386C11.8773 11.4386 12.2451 11.2934 12.517 11.0347L21.7687 2.22917V14.3819L16.4281 9.27083L15.405 10.25L20.6513 15.2778ZM2.40182 1.38889H20.5932L11.4939 10.0486L2.40182 1.38889Z" fill="white"/>
</svg>
