<svg width="16" height="16" viewBox="0 0 16 16" fill="none" xmlns="http://www.w3.org/2000/svg">
<path d="M15.9987 8.00039V7.99639C15.9987 5.62925 14.9681 3.50343 13.3316 2.04155L13.3236 2.03489C13.3034 2.0131 13.2808 1.99365 13.2562 1.97689L13.2549 1.97623C11.8014 0.700019 9.93224 -0.00204517 7.998 0.00172408C5.97684 0.00172408 4.13166 0.752328 2.72511 1.99089L2.73377 1.98356C2.71682 1.99642 2.70119 2.01093 2.68711 2.02689V2.02755C1.84153 2.77629 1.1647 3.69614 0.701449 4.72619C0.238197 5.75624 -0.000897851 6.87296 2.53356e-06 8.00239C2.53356e-06 10.3689 1.02925 12.4947 2.66445 13.9572L2.67245 13.9639C2.69362 13.9879 2.71731 14.0096 2.74311 14.0286L2.74444 14.0292C4.19754 15.3035 6.06528 16.0046 7.998 16.0011C9.93975 16.004 11.8155 15.2965 13.2716 14.0119L13.2629 14.0192C14.1231 13.2713 14.8127 12.3474 15.2849 11.3099C15.7571 10.2724 16.001 9.14561 16 8.00572V8.00106L15.9987 8.00039ZM13.0242 13.2033C12.628 12.8828 12.2018 12.601 11.7517 12.362L11.7084 12.3407C12.117 11.1628 12.363 9.8049 12.3863 8.39236V8.38169H15.2267C15.1309 10.2091 14.3444 11.9319 13.0262 13.2013L13.0242 13.2033ZM8.38063 12.2C9.2359 12.246 10.0352 12.434 10.7724 12.74L10.7244 12.7227C10.1338 14.0692 9.30256 14.9945 8.38063 15.1978V12.2ZM8.38063 11.4374V8.38169H11.6257C11.6 9.64709 11.3805 10.9011 10.9751 12.1L11.0011 12.0127C10.1735 11.6726 9.29321 11.4782 8.3993 11.4381L8.3813 11.4374H8.38063ZM8.38063 7.61909V4.56334C9.29867 4.52144 10.2025 4.32048 11.0517 3.96939L10.9991 3.98872C11.3691 5.06797 11.5964 6.31186 11.6257 7.60509V7.61909H8.38063ZM8.38063 3.80074V0.804324C9.30256 1.00764 10.1338 1.9289 10.7244 3.27945C10.0352 3.56609 9.2359 3.75341 8.39997 3.80007L8.38063 3.80074ZM10.2831 1.1343C11.0686 1.3963 11.8033 1.79135 12.455 2.3022L12.4396 2.2902C12.1443 2.52218 11.813 2.74083 11.4637 2.93081L11.4264 2.94948C11.1441 2.28335 10.756 1.66723 10.2771 1.12496L10.2831 1.1323V1.1343ZM7.6167 0.806323V3.80074C6.79443 3.75879 5.98544 3.57616 5.2249 3.26078L5.27289 3.27812C5.86618 1.93156 6.69611 1.00697 7.61803 0.803657L7.6167 0.806323ZM4.57162 2.94748C4.21027 2.75306 3.86596 2.52851 3.54237 2.2762L3.55837 2.2882C4.19107 1.79234 4.90274 1.40654 5.66353 1.14696L5.71419 1.13163C5.24784 1.65921 4.86785 2.25721 4.58829 2.90348L4.57162 2.94681V2.94748ZM7.61803 4.56268V7.61842H4.37297C4.4023 6.3112 4.62962 5.0673 5.02558 3.90073L4.99958 3.98806C5.82689 4.32768 6.70664 4.52185 7.60003 4.56201L7.61803 4.56268ZM7.61803 8.38102V11.4368C6.7 11.4787 5.79621 11.6796 4.94692 12.0307L4.99958 12.0114C4.62962 10.9328 4.4023 9.68825 4.37297 8.39502V8.38102H7.61803ZM7.61803 12.1994V15.1958C6.69611 14.9925 5.86485 14.0712 5.27423 12.7207C5.9635 12.434 6.76277 12.2474 7.5987 12.2007L7.61803 12.2V12.1994ZM5.71819 14.8658C4.93289 14.6046 4.19828 14.2104 3.54637 13.7006L3.56237 13.7126C3.85768 13.4806 4.18899 13.2619 4.53829 13.072L4.57562 13.0533C4.85552 13.7197 5.2436 14.3353 5.72419 14.8751L5.71819 14.8685V14.8658ZM11.427 13.0526C11.8137 13.2626 12.145 13.4806 12.4563 13.7239L12.4403 13.7119C11.8076 14.2078 11.0959 14.5936 10.3351 14.8532L10.2845 14.8685C10.7508 14.3411 11.1308 13.7434 11.4104 13.0973L11.427 13.054V13.0526ZM15.2267 7.61909H12.3863C12.3659 6.23984 12.1278 4.87246 11.681 3.56743L11.7084 3.65942C12.1793 3.41148 12.6251 3.11859 13.0396 2.78482L13.0236 2.79682C14.339 4.0614 15.1258 5.7778 15.2254 7.59976L15.2261 7.61842L15.2267 7.61909ZM2.97442 2.79749C3.35839 3.10946 3.78969 3.39544 4.24698 3.63875L4.29031 3.66008C3.88168 4.83799 3.6357 6.19587 3.61237 7.60842V7.61909H0.771271C0.867058 5.79164 1.65363 4.06885 2.97175 2.79949L2.97375 2.79749H2.97442ZM0.771938 8.38169H3.61237C3.6328 9.76094 3.87082 11.1283 4.31764 12.4334L4.29031 12.3414C3.78969 12.6073 3.35905 12.8933 2.95909 13.216L2.97509 13.204C1.65969 11.9394 0.872839 10.223 0.773271 8.40102L0.772605 8.38236L0.771938 8.38169Z" fill="#101528"/>
</svg>
