<svg width="44" height="44" viewBox="0 0 44 44" fill="none" xmlns="http://www.w3.org/2000/svg">
<path d="M44 21.9999V21.9889C44 15.4788 41.1657 9.63225 36.6648 5.61175L36.6428 5.59342C36.5873 5.53349 36.5252 5.47999 36.4577 5.43392L36.454 5.43208C32.4566 1.92222 27.316 -0.00861579 21.9963 0.00175051C16.4377 0.00175051 11.363 2.06608 7.49467 5.47242L7.51851 5.45225C7.47188 5.48762 7.42889 5.52754 7.39017 5.57142V5.57325C5.06464 7.63243 3.20319 10.1623 1.92914 12.9951C0.655097 15.828 -0.0024693 18.8992 6.96788e-06 22.0054C6.96788e-06 28.5138 2.83067 34.3603 7.32784 38.3826L7.34984 38.4009C7.40808 38.467 7.47323 38.5266 7.54417 38.5788L7.54784 38.5806C11.5442 42.0853 16.6809 44.0132 21.9963 44.0036C27.3366 44.0118 32.4953 42.0659 36.4998 38.5329L36.476 38.5531C38.8418 36.4962 40.7383 33.9551 42.037 31.1018C43.3357 28.2485 44.0064 25.1495 44.0037 22.0146V22.0018L44 21.9999ZM35.8197 36.3091C34.7299 35.4275 33.5579 34.6528 32.3198 33.9954L32.2007 33.9368C33.3245 30.6973 34.001 26.9628 34.0652 23.0779V23.0486H41.877C41.6136 28.0745 39.4503 32.8125 35.8252 36.3036L35.8197 36.3091ZM23.0487 33.5499C25.4008 33.6764 27.599 34.1934 29.6267 35.0349L29.4947 34.9873C27.8703 38.6906 25.5842 41.2353 23.0487 41.7944V33.5499ZM23.0487 31.4526V23.0486H31.9733C31.9025 26.5287 31.2991 29.9775 30.184 33.2749L30.2555 33.0348C27.9793 32.0992 25.5585 31.5646 23.1 31.4544L23.0505 31.4526H23.0487ZM23.0487 20.9513V12.5473C25.5735 12.432 28.0591 11.8793 30.3948 10.9138L30.25 10.9669C31.2675 13.9351 31.8927 17.3561 31.9733 20.9127V20.9513H23.0487ZM23.0487 10.4499V2.20908C25.5842 2.76825 27.8703 5.30192 29.4947 9.01625C27.599 9.80458 25.4008 10.3198 23.1018 10.4481L23.0487 10.4499ZM28.281 3.11658C30.4413 3.83715 32.4617 4.92363 34.254 6.32858L34.2118 6.29558C33.3997 6.93358 32.4885 7.53492 31.5278 8.05742L31.4252 8.10875C30.6489 6.27675 29.5816 4.58228 28.2645 3.09092L28.281 3.11108V3.11658ZM20.9477 2.21458V10.4499C18.6862 10.3346 16.4613 9.83228 14.3697 8.96492L14.5017 9.01258C16.1333 5.30925 18.4158 2.76642 20.9513 2.20725L20.9477 2.21458ZM12.573 8.10325C11.5792 7.56857 10.6323 6.95099 9.74234 6.25708L9.78634 6.29008C11.5264 4.92637 13.4837 3.86532 15.576 3.15142L15.7153 3.10925C14.4328 4.56021 13.3877 6.20485 12.6188 7.98225L12.573 8.10142V8.10325ZM20.9513 12.5454V20.9494H12.0267C12.1073 17.3543 12.7325 13.9333 13.8215 10.7249L13.75 10.9651C16.0253 11.8991 18.4448 12.4331 20.9018 12.5436L20.9513 12.5454ZM20.9513 23.0468V31.4508C18.4265 31.566 15.9409 32.1187 13.6052 33.0843L13.75 33.0311C12.7325 30.0648 12.1073 26.6419 12.0267 23.0853V23.0468H20.9513ZM20.9513 33.5481V41.7889C18.4158 41.2298 16.1297 38.6961 14.5053 34.9818C16.401 34.1934 18.5992 33.6801 20.8982 33.5518L20.9513 33.5499V33.5481ZM15.7263 40.8814C13.5666 40.163 11.5462 39.079 9.75334 37.6768L9.79734 37.7098C10.6095 37.0718 11.5207 36.4704 12.4813 35.9479L12.584 35.8966C13.3538 37.7293 14.4211 39.4223 15.7428 40.9071L15.7263 40.8888V40.8814ZM31.427 35.8948C32.4903 36.4723 33.4015 37.0718 34.2577 37.7409L34.2137 37.7079C32.4736 39.0716 30.5164 40.1327 28.424 40.8466L28.2847 40.8888C29.5672 39.4385 30.6123 37.7944 31.3812 36.0176L31.427 35.8984V35.8948ZM41.877 20.9513H34.0652C34.009 17.158 33.3544 13.3974 32.1255 9.80825L32.2007 10.0613C33.4957 9.37937 34.7218 8.57384 35.8618 7.65592L35.8178 7.68892C39.4355 11.1668 41.5995 15.8873 41.8733 20.8981L41.8752 20.9494L41.877 20.9513ZM8.18034 7.69075C9.23634 8.54875 10.4225 9.33525 11.6802 10.0044L11.7993 10.0631C10.6755 13.3026 9.99901 17.0371 9.93484 20.9219V20.9513H2.12117C2.38461 15.9254 4.54786 11.1873 8.17301 7.69625L8.17851 7.69075H8.18034ZM2.12301 23.0486H9.93484C9.99104 26.8418 10.6457 30.6025 11.8745 34.1916L11.7993 33.9386C10.4225 34.6701 9.23817 35.4566 8.13817 36.3439L8.18217 36.3109C4.56452 32.833 2.40051 28.1125 2.12667 23.1018L2.12484 23.0504L2.12301 23.0486Z" fill="white"/>
</svg>
