<svg width="23" height="22" viewBox="0 0 23 22" fill="none" xmlns="http://www.w3.org/2000/svg">
<path d="M17.7163 21.6422C17.5015 21.6416 17.2873 21.6181 17.0775 21.5719C13.0823 20.7455 9.4016 18.8077 6.45913 15.9817C3.57944 13.1494 1.58223 9.54332 0.709127 5.59972C0.606177 5.10823 0.631445 4.59851 0.7825 4.11961C0.933554 3.64071 1.20531 3.20875 1.57163 2.86527L4.12718 0.40555C4.25771 0.282109 4.4128 0.18758 4.58234 0.128133C4.75187 0.0686865 4.93204 0.0456578 5.11107 0.0605502C5.29671 0.0799168 5.47585 0.139717 5.6359 0.235746C5.79595 0.331774 5.93301 0.461699 6.03746 0.616384L9.2319 5.33777C9.3517 5.52097 9.40952 5.73778 9.39687 5.9563C9.38422 6.17482 9.30176 6.38351 9.16163 6.55166L7.55802 8.46833C8.19668 9.88184 9.10115 11.1594 10.2222 12.2314C11.336 13.3423 12.6524 14.2293 14.1002 14.8444L16.0872 13.2664C16.2541 13.1345 16.4571 13.0565 16.6694 13.0428C16.8817 13.0291 17.0931 13.0804 17.2755 13.1897L22.0991 16.3075C22.2647 16.4063 22.4057 16.5413 22.5116 16.7024C22.6176 16.8635 22.6857 17.0464 22.7109 17.2376C22.7361 17.4287 22.7177 17.6231 22.6571 17.8061C22.5965 17.9891 22.4953 18.1561 22.3611 18.2944L19.8694 20.7606C19.5864 21.0422 19.2504 21.2651 18.8809 21.4164C18.5114 21.5677 18.1156 21.6445 17.7163 21.6422V21.6422ZM5.00885 1.32555L2.45329 3.78527C2.24722 3.97729 2.09468 4.21964 2.01066 4.48849C1.92665 4.75733 1.91406 5.04342 1.97413 5.31861C2.78598 9.01914 4.65217 12.4054 7.34718 15.0681C10.1163 17.7268 13.5799 19.5495 17.3394 20.3261C17.624 20.3856 17.9188 20.3735 18.1976 20.291C18.4764 20.2085 18.7303 20.0581 18.9366 19.8533L21.4283 17.3872L16.7708 14.3781L14.6369 16.0775C14.5552 16.1422 14.4589 16.1858 14.3565 16.2048C14.2541 16.2237 14.1485 16.2173 14.0491 16.1861C12.2773 15.5333 10.6716 14.497 9.3469 13.1514C7.97671 11.8718 6.91314 10.2994 6.23552 8.55138C6.20685 8.44556 6.2059 8.33414 6.23275 8.22785C6.2596 8.12155 6.31336 8.02395 6.38885 7.94444L8.11385 5.88083L5.00885 1.32555Z" fill="white"/>
</svg>
