<svg width="29" height="29" viewBox="0 0 29 29" fill="none" xmlns="http://www.w3.org/2000/svg">
<g clip-path="url(#clip0_361_170)">
<path fill-rule="evenodd" clip-rule="evenodd" d="M28.2459 14.5C28.2459 22.0938 22.0897 28.25 14.4959 28.25C6.90194 28.25 0.74585 22.0938 0.74585 14.5C0.74585 6.90608 6.90194 0.75 14.4959 0.75C22.0897 0.75 28.2459 6.90608 28.2459 14.5ZM14.9885 10.9009C13.6512 11.4571 10.9783 12.6084 6.96988 14.3548C6.31899 14.6137 5.97801 14.867 5.94697 15.1145C5.89451 15.533 6.41854 15.6978 7.13212 15.9222C7.22918 15.9527 7.32975 15.9843 7.43285 16.0177C8.13491 16.246 9.07928 16.513 9.57023 16.5236C10.0156 16.5332 10.5126 16.3496 11.0614 15.9728C14.8065 13.4447 16.7399 12.1669 16.8611 12.1393C16.9468 12.1199 17.0655 12.0954 17.1459 12.1669C17.2263 12.2384 17.2184 12.3737 17.2098 12.41C17.158 12.6314 15.101 14.5437 14.0365 15.5333C13.7047 15.8419 13.4693 16.0606 13.4212 16.1107C13.3134 16.2226 13.2035 16.3285 13.0979 16.4302C12.4457 17.059 11.9565 17.5305 13.125 18.3005C13.6864 18.6705 14.1357 18.9764 14.584 19.2817C15.0735 19.6151 15.5618 19.9476 16.1936 20.3618C16.3544 20.4672 16.5082 20.5768 16.6579 20.6835C17.2276 21.0897 17.7393 21.4546 18.3717 21.3963C18.7391 21.3626 19.1186 21.0171 19.3114 19.9867C19.7669 17.5515 20.6623 12.2752 20.8693 10.1011C20.8874 9.91063 20.8646 9.66685 20.8462 9.55983C20.8279 9.45281 20.7896 9.30033 20.6505 9.18745C20.4858 9.05377 20.2314 9.02559 20.1177 9.0275C19.6005 9.03671 18.807 9.3126 14.9885 10.9009Z" stroke="white" stroke-linejoin="round"/>
</g>
<defs>
<clipPath id="clip0_361_170">
<rect width="29" height="29" fill="white"/>
</clipPath>
</defs>
</svg>
